<svg width="209" height="35" viewBox="0 0 209 35" fill="none" xmlns="http://www.w3.org/2000/svg">
<path d="M23.2021 34.3434V8.2709H29.7023V10.5359H30.0077C30.2134 10.2557 30.4417 9.99107 30.6908 9.7444C31.2252 9.22542 31.857 8.80489 32.5539 8.50422C33.39 8.10937 34.4544 7.91135 35.747 7.91016C37.2446 7.91016 38.5373 8.19193 39.6251 8.75549C40.7009 9.30692 41.6305 10.0819 42.3439 11.0223C43.0756 11.9877 43.6287 13.0637 43.9794 14.2044C44.713 16.552 44.713 19.0502 43.9794 21.3978C43.6299 22.5411 43.0768 23.6197 42.3439 24.5871C41.6309 25.5273 40.7012 26.3018 39.6251 26.8521C38.5361 27.4156 37.2434 27.6974 35.747 27.6974C34.4544 27.6974 33.39 27.494 32.5539 27.0872C31.8619 26.7777 31.2316 26.3575 30.6908 25.8452C30.4405 25.6066 30.212 25.3485 30.0077 25.0735H29.7023V34.3506L23.2021 34.3434ZM29.5125 17.8011C29.5126 18.6064 29.6702 19.4048 29.9774 20.1558C30.2617 20.8865 30.747 21.5321 31.3833 22.026C32.065 22.5049 32.8915 22.7634 33.7407 22.7634C34.5898 22.7634 35.4163 22.5049 36.098 22.026C36.7343 21.5321 37.2196 20.8865 37.5039 20.1558C38.1137 18.6384 38.1137 16.962 37.5039 15.4446C37.2186 14.7144 36.7335 14.069 36.098 13.5744C35.4159 13.0966 34.5895 12.8387 33.7407 12.8387C32.8918 12.8387 32.0655 13.0966 31.3833 13.5744C30.7478 14.069 30.2627 14.7144 29.9774 15.4446C29.6704 16.1963 29.5128 16.9952 29.5125 17.8011Z" fill="black"/>
<path d="M47.1152 27.3324V0H53.6154V27.3324H47.1152Z" fill="black"/>
<path d="M64.9462 7.91229C66.2629 7.91229 67.3336 8.1163 68.1583 8.5243C68.8457 8.8404 69.4748 9.25916 70.0215 9.76449C70.279 10.0023 70.5139 10.2612 70.7235 10.538H71.0289V8.27304H77.5291V27.3334H71.0289V25.0684H70.7235C70.0686 25.9446 69.1848 26.6452 68.1583 27.1019C67.3349 27.4967 66.2642 27.6942 64.9462 27.6942C63.4764 27.6942 62.1964 27.4124 61.1061 26.8488C60.0271 26.2977 59.0918 25.5257 58.3683 24.5892C57.6238 23.6279 57.0685 22.5476 56.729 21.3999C56.0207 19.0489 56.0207 16.5575 56.729 14.2065C57.0685 13.0618 57.6225 11.984 58.3645 11.0244C59.0878 10.0859 60.0231 9.3115 61.1023 8.75762C62.2874 8.17293 63.61 7.88208 64.9462 7.91229ZM66.9991 12.8407C66.1456 12.814 65.3099 13.0748 64.6407 13.5766C64.0053 14.0712 63.5201 14.7166 63.2348 15.4467C62.6277 16.9646 62.6277 18.64 63.2348 20.158C63.5192 20.8886 64.0045 21.5342 64.6407 22.0281C65.3097 22.5305 66.1454 22.7919 66.9991 22.7657C67.8468 22.7947 68.677 22.5327 69.3365 22.0281C69.9648 21.5268 70.449 20.8835 70.7443 20.158C71.3768 18.6445 71.3768 16.9601 70.7443 15.4467C70.448 14.7216 69.964 14.0786 69.3365 13.5766C68.6763 13.0733 67.8464 12.8121 66.9991 12.8407Z" fill="black"/>
<path d="M91.0265 27.6902C89.2013 27.6902 87.6233 27.4084 86.2927 26.8449C85.0589 26.3425 83.9497 25.6015 83.0364 24.6697C82.1232 23.7378 81.4261 22.6355 80.9898 21.4337C80.1271 19.0807 80.1271 16.5215 80.9898 14.1685C81.4264 12.9666 82.1236 11.8642 83.0368 10.9321C83.95 9.99994 85.059 9.25857 86.2927 8.75549C87.6221 8.19433 89.2 7.91255 91.0265 7.91016C92.8769 7.91016 94.4036 8.16202 95.6065 8.66575C96.6891 9.092 97.6646 9.72922 98.4695 10.5359C99.1181 11.1914 99.6453 11.9456 100.029 12.7668C100.389 13.6134 100.657 14.4926 100.828 15.3907H94.7888C94.6634 14.9223 94.4652 14.4741 94.2006 14.0608C93.9243 13.6712 93.5527 13.3504 93.1173 13.1257C92.6354 12.8625 92.0029 12.7309 91.22 12.7309C89.7502 12.7309 88.6542 13.228 87.932 14.2223C87.2097 15.2166 86.848 16.4095 86.8467 17.8011C86.8467 19.1926 87.2085 20.3855 87.932 21.3798C88.6555 22.3741 89.7515 22.8713 91.22 22.8713C92.0055 22.8713 92.6379 22.7397 93.1173 22.4764C93.5533 22.2503 93.925 21.9276 94.2006 21.536C94.4652 21.122 94.6634 20.6733 94.7888 20.2043H100.835C100.665 21.103 100.397 21.9828 100.037 22.83C99.6512 23.6536 99.1214 24.4097 98.4695 25.0663C97.6624 25.8738 96.6842 26.5111 95.5989 26.9364C94.4011 27.439 92.8769 27.6902 91.0265 27.6902Z" fill="black"/>
<path d="M113.342 27.6909C111.541 27.6909 109.982 27.4091 108.665 26.8455C107.409 26.3272 106.287 25.5568 105.377 24.5877C104.514 23.659 103.855 22.5773 103.438 21.4056C102.61 19.0728 102.603 16.5489 103.419 14.2122C103.819 13.0484 104.452 11.9681 105.282 11.0301C106.158 10.0545 107.256 9.27944 108.494 8.7633C109.8 8.20214 111.352 7.92036 113.152 7.91797C115.079 7.91797 116.77 8.30803 118.228 9.08815C119.696 9.88154 120.884 11.0679 121.643 12.4982C122.466 13.9974 122.878 15.8137 122.88 17.9471V19.3829H109.35C109.412 20.3336 109.806 21.2378 110.471 21.953C111.143 22.6853 112.1 23.0508 113.342 23.0496C114.279 23.0496 114.995 22.8881 115.49 22.565C116.041 22.1769 116.48 21.6632 116.765 21.0718H122.734C122.514 21.8729 122.208 22.6505 121.821 23.3924C121.41 24.1213 120.884 24.7869 120.261 25.3666C119.481 26.085 118.557 26.6477 117.543 27.0214C116.416 27.4689 115.015 27.6921 113.342 27.6909ZM109.312 15.8239H116.649C116.597 14.6968 116.236 13.8455 115.566 13.2699C114.871 12.6862 113.967 12.3771 113.038 12.4067C112.111 12.3854 111.209 12.6934 110.509 13.2699C109.819 13.8467 109.42 14.698 109.312 15.8239Z" fill="black"/>
<path d="M134.67 27.6892C132.947 27.6892 131.585 27.4379 130.583 26.9354C129.582 26.4328 128.853 25.8035 128.398 25.0473C127.959 24.337 127.663 23.5564 127.523 22.7446C127.407 22.0848 127.344 21.4176 127.333 20.7488V13.1606H123.988V8.26985H127.333V3.55859H133.835V8.26985H137.933V13.1606H133.835V20.5694C133.835 21.2873 134.044 21.8568 134.461 22.278C134.879 22.6991 135.595 22.9085 136.609 22.9061C137.159 22.894 137.706 22.8339 138.245 22.7267V27.3302C137.066 27.5438 135.87 27.6638 134.67 27.6892Z" fill="#F72585"/>
<path d="M150.789 27.6902C148.513 27.6902 146.574 27.235 144.974 26.3244C143.42 25.4568 142.15 24.1996 141.305 22.6918C140.469 21.1829 140.032 19.5047 140.032 17.8011C140.032 16.0975 140.469 14.4192 141.305 12.9104C142.15 11.4026 143.42 10.1453 144.974 9.27776C146.569 8.36603 148.508 7.91016 150.789 7.91016C153.096 7.91016 155.048 8.36603 156.644 9.27776C158.201 10.1448 159.473 11.402 160.321 12.9104C161.158 14.4192 161.594 16.0975 161.594 17.8011C161.594 19.5047 161.158 21.1829 160.321 22.6918C159.475 24.1992 158.205 25.4563 156.652 26.3244C155.051 27.2362 153.096 27.6914 150.789 27.6902ZM150.789 22.7277C152.133 22.7277 153.179 22.2425 153.927 21.2722C154.688 20.2602 155.081 19.0424 155.049 17.8011C155.081 16.5598 154.688 15.342 153.927 14.33C153.179 13.3597 152.133 12.8745 150.789 12.8745C150.183 12.8546 149.581 12.9771 149.037 13.2311C148.493 13.4851 148.024 13.8627 147.672 14.33C146.901 15.3378 146.501 16.5573 146.534 17.8011C146.501 19.0448 146.901 20.2643 147.672 21.2722C148.024 21.7395 148.493 22.1171 149.037 22.3711C149.581 22.6251 150.183 22.7476 150.789 22.7277Z" fill="#F72585"/>
<path d="M174.437 35.0002C172.54 35.0002 170.969 34.7783 169.724 34.3344C168.479 33.8905 167.495 33.3377 166.772 32.676C166.125 32.1125 165.59 31.4439 165.193 30.7018C164.838 29.9615 164.583 29.1818 164.434 28.3811H170.709C170.992 28.9537 171.431 29.4444 171.982 29.8026C172.502 30.1256 173.293 30.2872 174.357 30.2872C175.727 30.2872 176.772 29.9157 177.493 29.1726C178.214 28.4296 178.576 27.3988 178.579 26.0803V24.106H178.273C177.957 24.5577 177.58 24.9685 177.152 25.3282C176.597 25.7952 175.96 26.1664 175.27 26.4248C174.398 26.744 173.468 26.8971 172.534 26.8753C171.2 26.9038 169.877 26.6326 168.675 26.0838C167.59 25.5722 166.642 24.8361 165.899 23.9301C165.15 23.0177 164.583 21.9838 164.226 20.879C163.859 19.756 163.675 18.5869 163.679 17.4116C163.676 16.2296 163.862 15.0539 164.229 13.9243C164.583 12.8222 165.151 11.7918 165.903 10.8858C166.684 9.93125 167.693 9.16483 168.847 8.64897C170.001 8.13311 171.268 7.8824 172.543 7.91726C173.478 7.8955 174.408 8.04859 175.279 8.36774C175.973 8.62957 176.614 9.00032 177.177 9.46434C177.61 9.81372 177.983 10.2263 178.279 10.6866H178.584V8.27442H185.085V26.0767C185.091 27.5858 184.706 29.0734 183.963 30.4092C183.216 31.7649 182.062 32.868 180.503 33.7188C178.943 34.5695 176.921 34.9966 174.437 35.0002ZM174.475 22.0887C175.439 22.0887 176.237 21.8614 176.871 21.4067C177.505 20.9508 177.997 20.3421 178.296 19.6442C178.61 18.929 178.772 18.162 178.772 17.3873C178.772 16.6127 178.61 15.8457 178.296 15.1304C177.993 14.4397 177.501 13.8376 176.871 13.3859C176.175 12.9123 175.332 12.6717 174.475 12.7021C173.631 12.6756 172.802 12.9163 172.118 13.3859C171.486 13.8398 170.989 14.4408 170.675 15.1304C170.348 15.8427 170.179 16.6109 170.179 17.3873C170.179 18.1638 170.348 18.932 170.675 19.6442C170.985 20.3411 171.482 20.9488 172.118 21.4067C172.803 21.8729 173.632 22.1091 174.475 22.0779V22.0887Z" fill="black"/>
<path d="M198.199 27.6902C195.922 27.6902 193.983 27.235 192.382 26.3244C190.829 25.4563 189.56 24.1992 188.714 22.6918C187.877 21.1833 187.439 19.505 187.439 17.8011C187.439 16.0972 187.877 14.4189 188.714 12.9104C189.561 11.4025 190.831 10.1454 192.386 9.27776C193.983 8.36603 195.922 7.91016 198.203 7.91016C200.51 7.91016 202.462 8.36603 204.058 9.27776C205.611 10.1459 206.881 11.4029 207.727 12.9104C208.563 14.4192 209 16.0975 209 17.8011C209 19.5047 208.563 21.1829 207.727 22.6918C206.881 24.1992 205.611 25.4563 204.058 26.3244C202.459 27.2362 200.506 27.6914 198.199 27.6902ZM198.199 22.7277C199.542 22.7277 200.588 22.2425 201.335 21.2722C202.097 20.2604 202.491 19.0426 202.458 17.8011C202.491 16.5596 202.097 15.3417 201.335 14.33C200.588 13.3597 199.542 12.8745 198.199 12.8745C197.593 12.8544 196.991 12.9769 196.447 13.2309C195.903 13.4849 195.434 13.8625 195.082 14.33C194.31 15.3375 193.91 16.5572 193.943 17.8011C193.91 19.0449 194.31 20.2647 195.082 21.2722C195.434 21.7396 195.903 22.1173 196.447 22.3713C196.991 22.6253 197.593 22.7478 198.199 22.7277Z" fill="black"/>
<path d="M0 3.55859L5.91196 27.4594H9.60789V3.55859H0Z" fill="black"/>
<path d="M15.7361 27.4608C17.7009 27.4608 19.2936 25.9542 19.2936 24.0956C19.2936 22.2371 17.7009 20.7305 15.7361 20.7305C13.7714 20.7305 12.1787 22.2371 12.1787 24.0956C12.1787 25.9542 13.7714 27.4608 15.7361 27.4608Z" fill="#F72585"/>
</svg>
