<svg xmlns="http://www.w3.org/2000/svg" viewBox="0 0 1101.55 194.97"><defs><style>.cls-1{fill:#124efe;}</style></defs><g id="Layer_2" data-name="Layer 2"><g id="Layer_1-2" data-name="Layer 1"><path d="M122.29,191.36V46.09h34.26V58.71h1.61a36.62,36.62,0,0,1,3.6-4.41,32.59,32.59,0,0,1,9.82-6.91q6.61-3.3,16.83-3.31,11.84,0,20.44,4.71a42.65,42.65,0,0,1,14.33,12.63,58.44,58.44,0,0,1,8.62,17.73,70.69,70.69,0,0,1,0,40.08A58.32,58.32,0,0,1,223.18,137a42.52,42.52,0,0,1-14.33,12.62q-8.61,4.71-20.44,4.71-10.22,0-16.83-3.4a35.06,35.06,0,0,1-9.82-6.92,33.24,33.24,0,0,1-3.6-4.3h-1.61v51.69Zm33.26-92.17A36.37,36.37,0,0,0,158,112.31a24.37,24.37,0,0,0,7.41,10.42,20.84,20.84,0,0,0,24.85,0,24.37,24.37,0,0,0,7.41-10.42,36.94,36.94,0,0,0,0-26.25,24.49,24.49,0,0,0-7.41-10.42,20.88,20.88,0,0,0-24.85,0A24.49,24.49,0,0,0,158,86.06,36.46,36.46,0,0,0,155.55,99.19Z"/><path d="M248.33,152.29V0h34.26V152.29Z"/><path d="M342.31,44.08q10.41,0,16.93,3.41a37.52,37.52,0,0,1,9.82,6.91,32.33,32.33,0,0,1,3.7,4.31h1.61V46.09h34.26v106.2H374.37V139.67h-1.61A34.59,34.59,0,0,1,359.24,151q-6.51,3.3-16.93,3.3-11.62,0-20.24-4.71A43.43,43.43,0,0,1,307.64,137,55.26,55.26,0,0,1,299,119.23a73.11,73.11,0,0,1,0-40.08,55.36,55.36,0,0,1,8.62-17.73,43.57,43.57,0,0,1,14.43-12.63A41.66,41.66,0,0,1,342.31,44.08Zm10.82,27.46a19,19,0,0,0-12.43,4.1,24.49,24.49,0,0,0-7.41,10.42,37.09,37.09,0,0,0,0,26.25,24.37,24.37,0,0,0,7.41,10.42,19,19,0,0,0,12.43,4.11,18.53,18.53,0,0,0,12.32-4.11,25.72,25.72,0,0,0,7.42-10.42,35.7,35.7,0,0,0,0-26.25,25.86,25.86,0,0,0-7.42-10.42A18.58,18.58,0,0,0,353.13,71.54Z"/><path d="M479.77,154.29q-14.43,0-24.95-4.71a50.78,50.78,0,0,1-27.95-30.15,61.77,61.77,0,0,1,0-40.48,50.83,50.83,0,0,1,27.95-30.16q10.51-4.69,24.95-4.71,14.63,0,24.14,4.21A44,44,0,0,1,519,58.71a44.55,44.55,0,0,1,8.22,12.43,74.73,74.73,0,0,1,4.21,14.62H499.6a27.18,27.18,0,0,0-3.1-7.41,16.24,16.24,0,0,0-5.71-5.21q-3.81-2.2-10-2.2-11.62,0-17.33,8.31t-5.72,19.94q0,11.63,5.72,19.94t17.33,8.31q6.21,0,10-2.2A16.24,16.24,0,0,0,496.5,120a27.25,27.25,0,0,0,3.1-7.42h31.87a74.63,74.63,0,0,1-4.21,14.63A44.55,44.55,0,0,1,519,139.67a44,44,0,0,1-15.13,10.42Q494.4,154.29,479.77,154.29Z"/><path d="M597.39,154.29q-14.24,0-24.65-4.71A49.83,49.83,0,0,1,555.41,137a52,52,0,0,1-10.22-17.73,63.41,63.41,0,0,1-.1-40.08,53.23,53.23,0,0,1,9.82-17.73,47.16,47.16,0,0,1,16.93-12.63q10.32-4.69,24.55-4.71,15.23,0,26.75,6.52a45.22,45.22,0,0,1,18,19q6.51,12.53,6.52,30.36v8H576.35a23.9,23.9,0,0,0,5.91,14.32q5.31,6.12,15.13,6.11,7.41,0,11.32-2.7a21.49,21.49,0,0,0,6.72-8.32h31.46a67.25,67.25,0,0,1-4.81,12.93,45.55,45.55,0,0,1-8.22,11,42.82,42.82,0,0,1-14.33,9.22Q610.62,154.3,597.39,154.29ZM576.15,88.17h38.67q-.41-9.42-5.71-14.23a19.08,19.08,0,0,0-13.32-4.81,19.57,19.57,0,0,0-13.33,4.81Q577,78.76,576.15,88.17Z"/><path class="cls-1" d="M709.8,154.29q-13.62,0-21.54-4.2t-11.52-10.52a37.34,37.34,0,0,1-4.61-12.83,74.57,74.57,0,0,1-1-11.12V73.34H653.5V46.09h17.63V19.84H705.4V46.09H727V73.34H705.4v41.28q0,6,3.3,9.52t11.32,3.5a47.14,47.14,0,0,0,8.62-1v25.65A113.65,113.65,0,0,1,709.8,154.29Z"/><path class="cls-1" d="M794.76,154.29q-18,0-30.65-7.61a51.56,51.56,0,0,1-19.34-20.24,58.69,58.69,0,0,1,0-54.5A51.56,51.56,0,0,1,764.11,51.7q12.61-7.62,30.65-7.62,18.24,0,30.86,7.62A51.63,51.63,0,0,1,845,71.94a58.69,58.69,0,0,1,0,54.5,51.63,51.63,0,0,1-19.34,20.24Q813,154.3,794.76,154.29Zm0-27.65q10.62,0,16.54-8.11a32,32,0,0,0,5.91-19.34,32,32,0,0,0-5.91-19.34q-5.92-8.11-16.54-8.11a19.35,19.35,0,0,0-16.43,8.11,31.64,31.64,0,0,0-6,19.34,31.64,31.64,0,0,0,6,19.34A19.35,19.35,0,0,0,794.76,126.64Z"/><path d="M919.4,195q-15,0-24.84-3.71T879,182.05a38.74,38.74,0,0,1-8.32-11,53.77,53.77,0,0,1-4-12.93h33.07a19.79,19.79,0,0,0,6.71,7.92q4.11,2.7,12.52,2.7,10.83,0,16.53-6.21t5.72-17.23v-11h-1.61a34.82,34.82,0,0,1-5.91,6.81,33.41,33.41,0,0,1-9.92,6.11,37.4,37.4,0,0,1-14.42,2.51,44.49,44.49,0,0,1-20.34-4.41,42.54,42.54,0,0,1-14.63-12,53,53,0,0,1-8.82-17A64.8,64.8,0,0,1,862.7,97a65.46,65.46,0,0,1,2.9-19.43,51.8,51.8,0,0,1,8.82-16.93,42.71,42.71,0,0,1,35-16.54,37.4,37.4,0,0,1,14.42,2.51,34.92,34.92,0,0,1,10,6.11,28.24,28.24,0,0,1,5.81,6.81h1.61V46.09h34.26v99.19a51.44,51.44,0,0,1-5.91,24.14q-5.91,11.33-18.24,18.44T919.4,195Zm.2-71.94q7.62,0,12.63-3.8a23.37,23.37,0,0,0,7.51-9.82,32.75,32.75,0,0,0,0-25.15,23.5,23.5,0,0,0-7.51-9.72,20.33,20.33,0,0,0-12.63-3.81,20,20,0,0,0-12.42,3.81,24.24,24.24,0,0,0-7.61,9.72,31.59,31.59,0,0,0,0,25.15,24.08,24.08,0,0,0,7.61,9.82A19.92,19.92,0,0,0,919.6,123Z"/><path d="M1044.64,154.29q-18,0-30.66-7.61a51.6,51.6,0,0,1-19.33-20.24,58.61,58.61,0,0,1,0-54.5A51.6,51.6,0,0,1,1014,51.7q12.63-7.62,30.66-7.62,18.24,0,30.86,7.62a51.63,51.63,0,0,1,19.34,20.24,58.69,58.69,0,0,1,0,54.5,51.63,51.63,0,0,1-19.34,20.24Q1062.88,154.3,1044.64,154.29Zm0-27.65q10.62,0,16.53-8.11a32,32,0,0,0,5.92-19.34,32,32,0,0,0-5.92-19.34q-5.91-8.11-16.53-8.11a19.34,19.34,0,0,0-16.43,8.11,31.58,31.58,0,0,0-6,19.34,31.58,31.58,0,0,0,6,19.34A19.34,19.34,0,0,0,1044.64,126.64Z"/><polygon points="0 19.84 31.16 153.01 50.64 153.01 50.64 19.84 0 19.84"/><circle cx="82.94" cy="134.26" r="18.75"/></g></g></svg>